<svg width="283" height="91" viewBox="0 0 283 91" fill="none" xmlns="http://www.w3.org/2000/svg">
  <!-- Main logo structure -->
  <g id="edf-logo">
    <!-- Background elements -->
    <rect x="193.71" y="1.07" width="87.29" height="85.86" fill="#B7BCC3"/>
    <rect x="0" y="0" width="88.83" height="87.4" fill="#192C7A"/>
    
    <!-- Text elements -->
    <text x="220.72" y="58.72" font-family="Helvetica Neue" font-size="9.16" fill="#2C639B">EDF</text>
    <text x="258.48" y="70.8" font-family="Helvetica Neue" font-size="11.38" fill="#1D2A6E">OUTLET</text>
    
    <!-- Decorative elements -->
    <path d="M258.87 60.23L265.54 70.91H252.2L258.87 60.23Z" fill="#1D2A6E"/>
    <path d="M261.11 64.03L263.22 67.08H259L261.11 64.03Z" fill="#1D2A6E"/>
    <path d="M215.83 54.87C215.83 54.87 230.65 54.54 230.65 54.54C230.65 54.54 230.65 54.54 230.65 54.54" fill="#1D2A6E"/>
    
    <!-- Complex logo elements -->
    <g id="logo-details">
      <!-- Red elements -->
      <path d="M122.51 0.4C122.51 0.4 144.94 28.24 144.94 28.24C144.94 28.24 122.51 28.24 122.51 28.24" fill="#B8081F"/>
      <path d="M53.7 0.4C53.7 0.4 75.33 28.27 75.33 28.27C75.33 28.27 53.7 28.27 53.7 28.27" fill="#B8081F"/>
      <path d="M77 0.39C77 0.39 95.58 26.25 95.58 26.25C95.58 26.25 77 26.25 77 26.25" fill="#B8081F"/>
      <path d="M146.38 0.22C146.38 0.22 166.16 26.25 166.16 26.25C166.16 26.25 146.38 26.25 146.38 26.25" fill="#B8081F"/>
      <path d="M169.69 0.22C169.69 0.22 188.27 26.08 188.27 26.08C188.27 26.08 169.69 26.08 169.69 26.08" fill="#B8081F"/>
      <path d="M0 0C0 0 21.59 28.41 21.59 28.41C21.59 28.41 0 28.41 0 28.41" fill="#B8081F"/>
      <path d="M21.52 0.38C21.52 0.38 42.21 28.14 42.21 28.14C42.21 28.14 21.52 28.14 21.52 28.14" fill="#B8081F"/>
      <path d="M99.14 0C99.14 0 118.89 26.56 118.89 26.56C118.89 26.56 99.14 26.56 99.14 26.56" fill="#B8081F"/>
      
      <!-- Yellow elements -->
      <path d="M108.3 31.27C108.3 31.27 118.32 44.58 118.32 44.58C118.32 44.58 108.3 44.58 108.3 44.58" fill="#FFDE1C"/>
      <path d="M120.12 31.27C120.12 31.27 129.86 44.57 129.86 44.57C129.86 44.57 120.12 44.57 120.12 44.57" fill="#FFDE1C"/>
      <path d="M130.14 31.27C130.14 31.27 138.53 44.57 138.53 44.57C138.53 44.57 130.14 44.57 130.14 44.57" fill="#FFDE1C"/>
      <path d="M140.08 31.27C140.08 31.27 148.47 44.57 148.47 44.57C148.47 44.57 140.08 44.57 140.08 44.57" fill="#FFDE1C"/>
      <path d="M150.67 31.27C150.67 31.27 159.19 44.58 159.19 44.58C159.19 44.58 150.67 44.58 150.67 44.58" fill="#FFDE1C"/>
      <path d="M161.27 31.02C161.27 31.02 168.82 44.83 168.82 44.83C168.82 44.83 161.27 44.83 161.27 44.83" fill="#FFDE1C"/>
      <path d="M170.7 31.02C170.7 31.02 178.82 44.83 178.82 44.83C178.82 44.83 170.7 44.83 170.7 44.83" fill="#FFDE1C"/>
      <path d="M180.63 31.02C180.63 31.02 188.75 44.83 188.75 44.83C188.75 44.83 180.63 44.83 180.63 44.83" fill="#FFDE1C"/>
      <path d="M1.61 31.74C1.61 31.74 8.16 43.97 8.16 43.97C8.16 43.97 1.61 43.97 1.61 43.97" fill="#FFDE1C"/>
      <path d="M10.46 31.73C10.46 31.73 18.67 44.17 18.67 44.17C18.67 44.17 10.46 44.17 10.46 44.17" fill="#FFDE1C"/>
      <path d="M21.31 31.73C21.31 31.73 29.73 43.97 29.73 43.97C29.73 43.97 21.31 43.97 21.31 43.97" fill="#FFDE1C"/>
      <path d="M31.46 31.74C31.46 31.74 39.64 43.98 39.64 43.98C39.64 43.98 31.46 43.98 31.46 43.98" fill="#FFDE1C"/>
      <path d="M42.38 31.74C42.38 31.74 45.04 43.98 45.04 43.98C45.04 43.98 42.38 43.98 42.38 43.98" fill="#FFDE1C"/>
      <path d="M47.21 31.74C47.21 31.74 55.23 43.98 55.23 43.98C55.23 43.98 47.21 43.98 47.21 43.98" fill="#FFDE1C"/>
      <path d="M57.32 31.73C57.32 31.73 65.53 44.17 65.53 44.17C65.53 44.17 57.32 44.17 57.32 44.17" fill="#FFDE1C"/>
      <path d="M68.17 31.73C68.17 31.73 76.59 43.97 76.59 43.97C76.59 43.97 68.17 43.97 68.17 43.97" fill="#FFDE1C"/>
      <path d="M78.3 31.74C78.3 31.74 85.53 43.98 85.53 43.98C85.53 43.98 78.3 43.98 78.3 43.98" fill="#FFDE1C"/>
      
      <!-- Blue elements -->
      <path d="M193.71 1.07C193.71 1.07 282 86.93 282 86.93C282 86.93 193.71 86.93 193.71 86.93" fill="#B7BCC3"/>
      <path d="M0 0C0 0 88.83 87.4 88.83 87.4C88.83 87.4 0 87.4 0 87.4" fill="#192C7A"/>
      
      <!-- Additional decorative elements -->
      <path d="M205.27 17.77C205.27 17.77 266.07 55.23 266.07 55.23C266.07 55.23 205.27 55.23 205.27 55.23" stroke="#1A1818" stroke-width="0.615"/>
      <path d="M218.25 46.71C218.25 46.71 234.72 52.8 234.72 52.8C234.72 52.8 218.25 52.8 218.25 52.8" stroke="#1A1818" stroke-width="0.615"/>
      <path d="M208.52 54.29C208.52 54.29 217.32 69.18 217.32 69.18C217.32 69.18 208.52 69.18 208.52 69.18" stroke="#1A1818" stroke-width="0.615"/>
      <path d="M206.25 54.91C206.25 54.91 214.45 69.18 214.45 69.18C214.45 69.18 206.25 69.18 206.25 69.18" stroke="#1A1818" stroke-width="0.615"/>
      <path d="M209.27 60.23C209.27 60.23 211.72 63.96 211.72 63.96C211.72 63.96 209.27 63.96 209.27 63.96" stroke="#1A1818" stroke-width="0.615"/>
      <path d="M229.3 69.29C229.3 69.29 238.39 82.76 238.39 82.76C238.39 82.76 229.3 82.76 229.3 82.76" stroke="#1A1818" stroke-width="0.615"/>
      <path d="M227.39 70.24C227.39 70.24 235.29 82.88 235.29 82.88C235.29 82.88 227.39 82.88 227.39 82.88" stroke="#1A1818" stroke-width="0.615"/>
      <path d="M230.02 74.76C230.02 74.76 232.39 78.37 232.39 78.37C232.39 78.37 230.02 78.37 230.02 78.37" stroke="#1A1818" stroke-width="0.615"/>
      <path d="M222.77 45.69C222.77 45.69 231.04 51.39 231.04 51.39C231.04 51.39 222.77 51.39 222.77 51.39" stroke="#1A1818" stroke-width="0.615"/>
      <path d="M273.85 28.66C273.85 28.66 279.85 33.13 279.85 33.13C279.85 33.13 273.85 33.13 273.85 33.13" stroke="#1A1818" stroke-width="0.615"/>
      <path d="M256.86 35.86C256.86 35.86 266.55 42.54 266.55 42.54C266.55 42.54 256.86 42.54 256.86 42.54" stroke="#1A1818" stroke-width="0.615"/>
      <path d="M217.7 0C217.7 0 280.72 50.09 280.72 50.09C280.72 50.09 217.7 50.09 217.7 50.09" stroke="#1A1818" stroke-width="0.615"/>
      <path d="M264.71 2.43C264.71 2.43 265.28 11.97 265.28 11.97C265.28 11.97 264.71 11.97 264.71 11.97" stroke="#1A1818" stroke-width="0.615"/>
      <path d="M251.68 10.53C251.68 10.53 273.67 34.77 273.67 34.77C273.67 34.77 251.68 34.77 251.68 34.77" stroke="#1A1818" stroke-width="0.615"/>
      <path d="M262 25.56C262 25.56 265.16 35.63 265.16 35.63C265.16 35.63 262 35.63 262 35.63" stroke="#1A1818" stroke-width="0.615"/>
      <path d="M225.7 25.47C225.7 25.47 254.31 42.87 254.31 42.87C254.31 42.87 225.7 42.87 225.7 42.87" stroke="#1A1818" stroke-width="0.615"/>
      <path d="M249.25 11.28C249.25 11.28 250.09 18.49 250.09 18.49C250.09 18.49 249.25 18.49 249.25 18.49" stroke="#1A1818" stroke-width="0.615"/>
      <path d="M249.48 18.72C249.48 18.72 250.26 25.6 250.26 25.6C250.26 25.6 249.48 25.6 249.48 25.6" stroke="#1A1818" stroke-width="0.615"/>
      <path d="M246.57 16.3C246.57 16.3 254.16 20.41 254.16 20.41C254.16 20.41 246.57 20.41 246.57 20.41" stroke="#1A1818" stroke-width="0.615"/>
      <path d="M239.68 16.2C239.68 16.2 240.55 23.39 240.55 23.39C240.55 23.39 239.68 23.39 239.68 23.39" stroke="#1A1818" stroke-width="0.615"/>
      <path d="M236.08 22.26C236.08 22.26 243.38 26.33 243.38 26.33C243.38 26.33 236.08 26.33 236.08 26.33" stroke="#1A1818" stroke-width="0.615"/>
      <path d="M239.92 23.53C239.92 23.53 240.62 29.74 240.62 29.74C240.62 29.74 239.92 29.74 239.92 29.74" stroke="#1A1818" stroke-width="0.615"/>
      <path d="M230.55 29.05C230.55 29.05 235.36 30.96 235.36 30.96C235.36 30.96 230.55 30.96 230.55 30.96" stroke="#1A1818" stroke-width="0.615"/>
      <path d="M219.71 34.83C219.71 34.83 224.16 39.51 224.16 39.51C224.16 39.51 219.71 39.51 219.71 39.51" stroke="#1A1818" stroke-width="0.615"/>
      <path d="M246.07 27.23C246.07 27.23 247.62 29.34 247.62 29.34C247.62 29.34 246.07 29.34 246.07 29.34" stroke="#1A1818" stroke-width="0.615"/>
      <path d="M236.37 30.26C236.37 30.26 239.7 32.58 239.7 32.58C239.7 32.58 236.37 32.58 236.37 32.58" stroke="#1A1818" stroke-width="0.615"/>
      <path d="M263.71 35.52C263.71 35.52 268.44 55.39 268.44 55.39C268.44 55.39 263.71 55.39 263.71 55.39" stroke="#1A1818" stroke-width="0.615"/>
      <path d="M255.81 36.43C255.81 36.43 262.39 57.82 262.39 57.82C262.39 57.82 255.81 57.82 255.81 57.82" stroke="#1A1818" stroke-width="0.615"/>
      <path d="M247.23 38.15C247.23 38.15 253.73 60.27 253.73 60.27C253.73 60.27 247.23 60.27 247.23 60.27" stroke="#1A1818" stroke-width="0.615"/>
      <path d="M234.07 58.21C234.07 58.21 236.8 60.69 236.8 60.69C236.8 60.69 234.07 60.69 234.07 60.69" stroke="#1A1818" stroke-width="0.615"/>
      <path d="M231.52 56.83C231.52 56.83 232.89 58.92 232.89 58.92C232.89 58.92 231.52 58.92 231.52 58.92" stroke="#1A1818" stroke-width="0.615"/>
      <path d="M240.66 38.76C240.66 38.76 244.02 59.97 244.02 59.97C244.02 59.97 240.66 59.97 240.66 59.97" stroke="#1A1818" stroke-width="0.615"/>
      <path d="M233.34 39.31C233.34 39.31 235.97 58.63 235.97 58.63C235.97 58.63 233.34 58.63 233.34 58.63" stroke="#1A1818" stroke-width="0.615"/>
      <path d="M225.73 39.77C225.73 39.77 228.44 57.23 228.44 57.23C228.44 57.23 225.73 57.23 225.73 57.23" stroke="#1A1818" stroke-width="0.615"/>
      <path d="M219.89 40.16C219.89 40.16 222.65 55.34 222.65 55.34C222.65 55.34 219.89 55.34 219.89 55.34" stroke="#1A1818" stroke-width="0.615"/>
      <path d="M217.63 35.21C217.63 35.21 268.28 42.6 268.28 42.6C268.28 42.6 217.63 42.6 217.63 42.6" stroke="#1A1818" stroke-width="0.615"/>
      <path d="M218.35 51.39C218.35 51.39 266.52 60.4 266.52 60.4C266.52 60.4 218.35 60.4 218.35 60.4" stroke="#1A1818" stroke-width="0.615"/>
      
      <!-- Additional logo details -->
      <path d="M90.72 30.04C90.72 30.04 102.65 46.11 102.65 46.11C102.65 46.11 90.72 46.11 90.72 46.11" fill="#1B2C73"/>
      <path d="M217.89 43.19C217.89 43.19 267.39 50.05 267.39 50.05C267.39 50.05 217.89 50.05 217.89 50.05" fill="#1D2A6E"/>
    </g>
  </svg>
